<svg xmlns="http://www.w3.org/2000/svg" width="1024" height="1024" viewBox="0 0 1024 1024">
<defs>
  <radialGradient id="bg" cx="42%" cy="36%" r="82%">
    <stop offset="0%"  stop-color="#EA8C6C"/>
    <stop offset="58%" stop-color="#DC7351"/>
    <stop offset="100%" stop-color="#C85D3D"/>
  </radialGradient>
  <filter id="ss" x="-50%" y="-50%" width="200%" height="200%">
    <feDropShadow dx="0" dy="8" stdDeviation="14" flood-color="#3a140a" flood-opacity="0.22"/>
  </filter>
</defs>
<rect width="1024" height="1024" fill="url(#bg)"/>
<g transform="translate(1024,0) scale(-1,1)"><g filter="url(#ss)">
<rect x="490.0" y="229.3" width="44.0" height="260.7" rx="22.0" fill="#F4EEE2" transform="rotate(0.00 512.0 512.0)"/>
<rect x="490.0" y="208.0" width="44.0" height="282.0" rx="22.0" fill="#F4EEE2" transform="rotate(30.00 512.0 512.0)"/>
<rect x="490.0" y="202.2" width="44.0" height="287.8" rx="22.0" fill="#F4EEE2" transform="rotate(60.00 512.0 512.0)"/>
<rect x="490.0" y="213.6" width="44.0" height="276.4" rx="22.0" fill="#F4EEE2" transform="rotate(90.00 512.0 512.0)"/>
<rect x="490.0" y="239.0" width="44.0" height="251.0" rx="22.0" fill="#F4EEE2" transform="rotate(120.00 512.0 512.0)"/>
<rect x="490.0" y="271.6" width="44.0" height="218.4" rx="22.0" fill="#F4EEE2" transform="rotate(150.00 512.0 512.0)"/>
<rect x="490.0" y="302.7" width="44.0" height="187.3" rx="22.0" fill="#F4EEE2" transform="rotate(180.00 512.0 512.0)"/>
<rect x="490.0" y="324.0" width="44.0" height="166.0" rx="22.0" fill="#F4EEE2" transform="rotate(210.00 512.0 512.0)"/>
<rect x="490.0" y="329.8" width="44.0" height="160.2" rx="22.0" fill="#F4EEE2" transform="rotate(240.00 512.0 512.0)"/>
<rect x="490.0" y="318.4" width="44.0" height="171.6" rx="22.0" fill="#F4EEE2" transform="rotate(270.00 512.0 512.0)"/>
<rect x="490.0" y="293.0" width="44.0" height="197.0" rx="22.0" fill="#F4EEE2" transform="rotate(300.00 512.0 512.0)"/>
<rect x="490.0" y="260.4" width="44.0" height="229.6" rx="22.0" fill="#F4EEE2" transform="rotate(330.00 512.0 512.0)"/>
<circle cx="512.0" cy="512.0" r="26.4" fill="#F4EEE2"/>
</g></g>
</svg>